<mxfile host="app.diagrams.net" agent="Mozilla/5.0 (Windows NT 10.0; Win64; x64; rv:143.0) Gecko/20100101 Firefox/143.0" version="28.2.5">
  <diagram name="Page-1" id="eW3xqZJNIczU26sJt-Gz">
    <mxGraphModel dx="864" dy="460" grid="1" gridSize="10" guides="1" tooltips="1" connect="1" arrows="1" fold="1" page="1" pageScale="1" pageWidth="960" pageHeight="1280" math="0" shadow="0">
      <root>
        <mxCell id="0" />
        <mxCell id="1" parent="0" />
        <mxCell id="ap" value="WiFi Access Point" style="rounded=1;whiteSpace=wrap;html=1;fillColor=#e1d5e7;" parent="1" vertex="1">
          <mxGeometry x="360" y="120" width="120" height="60" as="geometry" />
        </mxCell>
        <mxCell id="mqtt" value="MQTT服务器" style="rounded=1;whiteSpace=wrap;html=1;fillColor=#d5e8d4;" parent="1" vertex="1">
          <mxGeometry x="540" y="60" width="120" height="60" as="geometry" />
        </mxCell>
        <mxCell id="edge" value="管控边缘服务器" style="rounded=1;whiteSpace=wrap;html=1;fillColor=#f8cecc;" parent="1" vertex="1">
          <mxGeometry x="540" y="160" width="140" height="70" as="geometry" />
        </mxCell>
        <mxCell id="hmi" value="工程师工作站（HMI）" style="rounded=1;whiteSpace=wrap;html=1;fillColor=#ffe6cc;" parent="1" vertex="1">
          <mxGeometry x="740" y="180" width="120" height="60" as="geometry" />
        </mxCell>
        <mxCell id="cloud" value="云服务器（远程）" style="rounded=1;whiteSpace=wrap;html=1;fillColor=#f5f5f5;" parent="1" vertex="1">
          <mxGeometry x="800" y="40" width="120" height="70" as="geometry" />
        </mxCell>
        <mxCell id="e1" style="endArrow=block;endFill=1;strokeColor=#6c8ebf;" parent="1" target="ap" edge="1">
          <mxGeometry relative="1" as="geometry">
            <mxPoint x="320" y="150" as="targetPoint" />
            <mxPoint x="190" y="214.0983606557378" as="sourcePoint" />
          </mxGeometry>
        </mxCell>
        <mxCell id="e2" value="WiFi" style="noEdgeStyle=1;html=1;align=center;verticalAlign=middle;fontSize=11;" parent="1" vertex="1">
          <mxGeometry x="430" y="70" width="40" height="20" as="geometry" />
        </mxCell>
        <mxCell id="e3" style="endArrow=block;endFill=1;strokeColor=#6c8ebf;" parent="1" source="ap" target="mqtt" edge="1">
          <mxGeometry relative="1" as="geometry" />
        </mxCell>
        <mxCell id="e4" value="以太网" style="noEdgeStyle=1;html=1;align=center;verticalAlign=middle;fontSize=11;" parent="1" vertex="1">
          <mxGeometry x="480" y="110" width="50" height="20" as="geometry" />
        </mxCell>
        <mxCell id="e5" style="endArrow=block;endFill=1;strokeColor=#6c8ebf;" parent="1" source="ap" target="edge" edge="1">
          <mxGeometry relative="1" as="geometry" />
        </mxCell>
        <mxCell id="e6" style="endArrow=block;endFill=1;dashed=1;strokeColor=#999999;" parent="1" source="mqtt" target="cloud" edge="1">
          <mxGeometry relative="1" as="geometry" />
        </mxCell>
        <mxCell id="e7" value="5G网络" style="noEdgeStyle=1;html=1;align=center;verticalAlign=middle;fontSize=11;" parent="1" vertex="1">
          <mxGeometry x="700" y="40" width="50" height="20" as="geometry" />
        </mxCell>
        <mxCell id="e8" style="endArrow=block;endFill=1;strokeColor=#6c8ebf;" parent="1" source="cloud" target="edge" edge="1">
          <mxGeometry relative="1" as="geometry" />
        </mxCell>
        <mxCell id="e9" style="endArrow=block;endFill=1;strokeColor=#6c8ebf;" parent="1" source="edge" target="hmi" edge="1">
          <mxGeometry relative="1" as="geometry" />
        </mxCell>
        <mxCell id="e10" style="endArrow=block;endFill=1;strokeColor=#6c8ebf;" parent="1" source="edge" edge="1">
          <mxGeometry relative="1" as="geometry">
            <mxPoint x="190" y="228.939393939394" as="targetPoint" />
          </mxGeometry>
        </mxCell>
        <mxCell id="note1" value="机器人状态（速度、位置、信道）" style="text;html=1;strokeColor=none;fillColor=none;fontSize=12;" parent="1" vertex="1">
          <mxGeometry x="300" y="20" width="140" height="20" as="geometry" />
        </mxCell>
        <mxCell id="note2" value="路径规划" style="text;html=1;strokeColor=none;fillColor=none;fontSize=12;" parent="1" vertex="1">
          <mxGeometry x="900" y="100" width="60" height="20" as="geometry" />
        </mxCell>
        <mxCell id="note3" value="控制指令下发" style="text;html=1;strokeColor=none;fillColor=none;fontSize=12;" parent="1" vertex="1">
          <mxGeometry x="400" y="250" width="90" height="20" as="geometry" />
        </mxCell>
        <mxCell id="note4" value="实时状态显示" style="text;html=1;strokeColor=none;fillColor=none;fontSize=12;" parent="1" vertex="1">
          <mxGeometry x="670" y="230" width="90" height="20" as="geometry" />
        </mxCell>
        <mxCell id="note5" value="运输任务/路径规划" style="text;html=1;strokeColor=none;fillColor=none;fontSize=12;" parent="1" vertex="1">
          <mxGeometry x="840" y="20" width="110" height="20" as="geometry" />
        </mxCell>
        <mxCell id="status" value="状态采集&#xa;速度/位置/信道强度" style="rounded=1;whiteSpace=wrap;html=1;fillColor=#f8cecc;" parent="1" vertex="1">
          <mxGeometry x="220" y="30" width="80" height="60" as="geometry" />
        </mxCell>
        <mxCell id="FVhyo1jwLFq0jIHUH1NA-1" value="" style="rounded=1;whiteSpace=wrap;html=1;fillColor=#dae8fc;strokeColor=#6c8ebf;fontSize=14;fontStyle=1;fontColor=light-dark(#000000,#2433FF);" vertex="1" parent="1">
          <mxGeometry x="70" y="392.5" width="200" height="100" as="geometry" />
        </mxCell>
        <mxCell id="FVhyo1jwLFq0jIHUH1NA-2" value="激光雷达" style="ellipse;whiteSpace=wrap;html=1;fillColor=#ffe6cc;strokeColor=#d79b00;fontSize=10;" vertex="1" parent="1">
          <mxGeometry x="250" y="427.5" width="30" height="30" as="geometry" />
        </mxCell>
        <mxCell id="FVhyo1jwLFq0jIHUH1NA-4" style="endArrow=block;endFill=1;strokeColor=#00b050;strokeWidth=2;" edge="1" parent="1">
          <mxGeometry relative="1" as="geometry">
            <mxPoint x="320" y="442.5" as="targetPoint" />
            <mxPoint x="280.0000000000001" y="442.5" as="sourcePoint" />
            <Array as="points" />
          </mxGeometry>
        </mxCell>
        <mxCell id="FVhyo1jwLFq0jIHUH1NA-5" value="运动方向" style="text;html=1;strokeColor=none;fillColor=none;fontSize=12;" vertex="1" parent="1">
          <mxGeometry x="290" y="412.5" width="60" height="20" as="geometry" />
        </mxCell>
        <mxCell id="FVhyo1jwLFq0jIHUH1NA-6" value="" style="rounded=1;whiteSpace=wrap;html=1;arcSize=50;fillColor=light-dark(#000000,#BBBBBB);" vertex="1" parent="1">
          <mxGeometry x="210" y="390" width="40" height="15" as="geometry" />
        </mxCell>
        <mxCell id="FVhyo1jwLFq0jIHUH1NA-7" value="" style="rounded=1;whiteSpace=wrap;html=1;arcSize=50;fillColor=light-dark(#000000,#BBBBBB);" vertex="1" parent="1">
          <mxGeometry x="210" y="480" width="40" height="15" as="geometry" />
        </mxCell>
        <mxCell id="FVhyo1jwLFq0jIHUH1NA-8" value="" style="rounded=1;whiteSpace=wrap;html=1;arcSize=50;fillColor=light-dark(#000000,#BBBBBB);" vertex="1" parent="1">
          <mxGeometry x="90" y="480" width="40" height="15" as="geometry" />
        </mxCell>
        <mxCell id="FVhyo1jwLFq0jIHUH1NA-9" value="" style="rounded=1;whiteSpace=wrap;html=1;arcSize=50;fillColor=light-dark(#000000,#BBBBBB);" vertex="1" parent="1">
          <mxGeometry x="90" y="390" width="40" height="15" as="geometry" />
        </mxCell>
        <mxCell id="drive" value="&lt;font&gt;驱动装置&lt;/font&gt;" style="rounded=1;whiteSpace=wrap;html=1;fillColor=#fff2cc;fontSize=10;" parent="1" vertex="1">
          <mxGeometry x="79" y="415.75" width="21" height="53.5" as="geometry" />
        </mxCell>
        <mxCell id="controller" value="&lt;div&gt;本地控制器&lt;/div&gt;&lt;div&gt;&lt;font style=&quot;font-size: 7px;&quot;&gt;(含MQTT客户端)&lt;/font&gt;&lt;/div&gt;" style="rounded=1;whiteSpace=wrap;html=1;fillColor=#fff2cc;fontSize=10;align=center;" parent="1" vertex="1">
          <mxGeometry x="111" y="423.5" width="60" height="40" as="geometry" />
        </mxCell>
        <mxCell id="FVhyo1jwLFq0jIHUH1NA-11" value="" style="group" vertex="1" connectable="0" parent="1">
          <mxGeometry x="204" y="404" width="20" height="20" as="geometry" />
        </mxCell>
        <mxCell id="FVhyo1jwLFq0jIHUH1NA-3" value="" style="ellipse;whiteSpace=wrap;html=1;fillColor=#b3e6ff;strokeColor=light-dark(#2986cc, #0080c0);" vertex="1" parent="FVhyo1jwLFq0jIHUH1NA-11">
          <mxGeometry width="20" height="20" as="geometry" />
        </mxCell>
        <mxCell id="FVhyo1jwLFq0jIHUH1NA-10" value="" style="html=1;verticalLabelPosition=bottom;align=center;labelBackgroundColor=#ffffff;verticalAlign=top;strokeWidth=0.5;strokeColor=light-dark(#0080F0, #0080c0);shadow=0;dashed=0;shape=mxgraph.ios7.icons.wifi;pointerEvents=1;fillColor=none;" vertex="1" parent="FVhyo1jwLFq0jIHUH1NA-11">
          <mxGeometry x="2.5" y="2.8100000000000023" width="15" height="14.38" as="geometry" />
        </mxCell>
        <mxCell id="comm" value="&lt;font style=&quot;font-size: 10px;&quot;&gt;通信接口&lt;/font&gt;&lt;br&gt;&lt;font style=&quot;font-size: 7px;&quot;&gt;(&lt;/font&gt;&lt;font style=&quot;font-size: 8px;&quot;&gt;含信号强度测量&lt;/font&gt;&lt;font style=&quot;font-size: 7px;&quot;&gt;)&lt;/font&gt;" style="rounded=1;whiteSpace=wrap;html=1;fillColor=#fff2cc;" parent="1" vertex="1">
          <mxGeometry x="182" y="424.5" width="63" height="40" as="geometry" />
        </mxCell>
        <mxCell id="FVhyo1jwLFq0jIHUH1NA-12" value="&lt;span style=&quot;color: light-dark(rgb(0, 0, 0), rgb(0, 128, 192));&quot;&gt;WiFi&lt;/span&gt;" style="text;html=1;strokeColor=none;fillColor=none;fontSize=10;fontColor=light-dark(default, #0080c0);" vertex="1" parent="1">
          <mxGeometry x="224" y="400" width="30" height="20" as="geometry" />
        </mxCell>
        <mxCell id="FVhyo1jwLFq0jIHUH1NA-13" value="" style="endArrow=open;startArrow=open;html=1;rounded=0;endSize=0;startSize=0;strokeWidth=2;startFill=0;endFill=0;" edge="1" parent="1" source="drive" target="controller">
          <mxGeometry width="50" height="50" relative="1" as="geometry">
            <mxPoint x="130" y="440" as="sourcePoint" />
            <mxPoint x="180" y="390" as="targetPoint" />
          </mxGeometry>
        </mxCell>
        <mxCell id="FVhyo1jwLFq0jIHUH1NA-14" value="" style="endArrow=open;startArrow=open;html=1;rounded=0;endSize=0;startSize=0;strokeWidth=2;startFill=0;endFill=0;entryX=1;entryY=0.5;entryDx=0;entryDy=0;" edge="1" parent="1" source="comm" target="controller">
          <mxGeometry width="50" height="50" relative="1" as="geometry">
            <mxPoint x="130" y="460" as="sourcePoint" />
            <mxPoint x="141" y="460" as="targetPoint" />
          </mxGeometry>
        </mxCell>
        <UserObject label="移动机器人设备" placeholders="1" name="Variable" id="FVhyo1jwLFq0jIHUH1NA-15">
          <mxCell style="text;html=1;strokeColor=none;fillColor=none;align=center;verticalAlign=middle;whiteSpace=wrap;overflow=hidden;" vertex="1" parent="1">
            <mxGeometry x="115" y="464.5" width="110" height="20" as="geometry" />
          </mxCell>
        </UserObject>
        <mxCell id="FVhyo1jwLFq0jIHUH1NA-16" value="" style="points=[[0.03,0.36,0],[0.18,0,0],[0.5,0.34,0],[0.82,0,0],[0.97,0.36,0],[1,0.67,0],[0.975,0.975,0],[0.5,1,0],[0.025,0.975,0],[0,0.67,0]];verticalLabelPosition=bottom;sketch=0;html=1;verticalAlign=top;aspect=fixed;align=center;pointerEvents=1;shape=mxgraph.cisco19.wireless_access_point;fillColor=light-dark(#005073, #005073);strokeColor=none;" vertex="1" parent="1">
          <mxGeometry x="395" y="365.75" width="50" height="50" as="geometry" />
        </mxCell>
      </root>
    </mxGraphModel>
  </diagram>
</mxfile>
